<svg id="visual" viewBox="0 0 960 540" width="960" height="540" xmlns="http://www.w3.org/2000/svg" xmlns:xlink="http://www.w3.org/1999/xlink" version="1.1"><rect x="0" y="0" width="960" height="540" fill="#0b1009"></rect><defs><linearGradient id="grad1_0" x1="43.8%" y1="100%" x2="100%" y2="0%"><stop offset="14.444444444444446%" stop-color="#407e25" stop-opacity="1"></stop><stop offset="85.55555555555554%" stop-color="#407e25" stop-opacity="1"></stop></linearGradient></defs><defs><linearGradient id="grad1_1" x1="43.8%" y1="100%" x2="100%" y2="0%"><stop offset="14.444444444444446%" stop-color="#407e25" stop-opacity="1"></stop><stop offset="85.55555555555554%" stop-color="#25441c" stop-opacity="1"></stop></linearGradient></defs><defs><linearGradient id="grad1_2" x1="43.8%" y1="100%" x2="100%" y2="0%"><stop offset="14.444444444444446%" stop-color="#0b1009" stop-opacity="1"></stop><stop offset="85.55555555555554%" stop-color="#25441c" stop-opacity="1"></stop></linearGradient></defs><defs><linearGradient id="grad2_0" x1="0%" y1="100%" x2="56.3%" y2="0%"><stop offset="14.444444444444446%" stop-color="#407e25" stop-opacity="1"></stop><stop offset="85.55555555555554%" stop-color="#407e25" stop-opacity="1"></stop></linearGradient></defs><defs><linearGradient id="grad2_1" x1="0%" y1="100%" x2="56.3%" y2="0%"><stop offset="14.444444444444446%" stop-color="#25441c" stop-opacity="1"></stop><stop offset="85.55555555555554%" stop-color="#407e25" stop-opacity="1"></stop></linearGradient></defs><defs><linearGradient id="grad2_2" x1="0%" y1="100%" x2="56.3%" y2="0%"><stop offset="14.444444444444446%" stop-color="#25441c" stop-opacity="1"></stop><stop offset="85.55555555555554%" stop-color="#0b1009" stop-opacity="1"></stop></linearGradient></defs><g transform="translate(960, 540)"><path d="M-459 0C-461.5 -53.7 -463.9 -107.3 -434.6 -141.2C-405.4 -175.1 -344.3 -189.3 -317.1 -230.4C-289.9 -271.5 -296.6 -339.6 -269.8 -371.3C-243 -403.1 -182.8 -398.5 -132.3 -407.1C-81.7 -415.6 -40.9 -437.3 0 -459L0 0Z" fill="#192a15"></path><path d="M-306 0C-307.6 -35.8 -309.3 -71.5 -289.8 -94.1C-270.2 -116.8 -229.6 -126.2 -211.4 -153.6C-193.3 -181 -197.7 -226.4 -179.9 -247.6C-162 -268.7 -121.9 -265.7 -88.2 -271.4C-54.5 -277.1 -27.2 -291.5 0 -306L0 0Z" fill="#326021"></path><path d="M-153 0C-153.8 -17.9 -154.6 -35.8 -144.9 -47.1C-135.1 -58.4 -114.8 -63.1 -105.7 -76.8C-96.6 -90.5 -98.9 -113.2 -89.9 -123.8C-81 -134.4 -60.9 -132.8 -44.1 -135.7C-27.2 -138.5 -13.6 -145.8 0 -153L0 0Z" fill="#407e25"></path></g><g transform="translate(0, 0)"><path d="M459 0C460.9 51.9 462.9 103.9 436.5 141.8C410.2 179.8 355.6 203.8 317.9 231C280.3 258.2 259.7 288.5 232.8 320.4C205.9 352.2 172.7 385.6 132.9 409C93 432.3 46.5 445.7 0 459L0 0Z" fill="#192a15"></path><path d="M306 0C307.3 34.6 308.6 69.2 291 94.6C273.5 119.9 237.1 135.9 212 154C186.9 172.1 173.1 192.3 155.2 213.6C137.2 234.8 115.1 257.1 88.6 272.6C62 288.2 31 297.1 0 306L0 0Z" fill="#326021"></path><path d="M153 0C153.6 17.3 154.3 34.6 145.5 47.3C136.7 59.9 118.5 67.9 106 77C93.4 86.1 86.6 96.2 77.6 106.8C68.6 117.4 57.6 128.5 44.3 136.3C31 144.1 15.5 148.6 0 153L0 0Z" fill="#407e25"></path></g></svg>