<svg id="visual" viewBox="0 0 960 540" width="960" height="540" xmlns="http://www.w3.org/2000/svg" xmlns:xlink="http://www.w3.org/1999/xlink" version="1.1"><rect x="0" y="0" width="960" height="540" fill="#0c110a"></rect><defs><linearGradient id="grad1_0" x1="43.8%" y1="100%" x2="100%" y2="0%"><stop offset="14.444444444444446%" stop-color="#3f7d24" stop-opacity="1"></stop><stop offset="85.55555555555554%" stop-color="#3f7d24" stop-opacity="1"></stop></linearGradient></defs><defs><linearGradient id="grad1_1" x1="43.8%" y1="100%" x2="100%" y2="0%"><stop offset="14.444444444444446%" stop-color="#3f7d24" stop-opacity="1"></stop><stop offset="85.55555555555554%" stop-color="#25441c" stop-opacity="1"></stop></linearGradient></defs><defs><linearGradient id="grad1_2" x1="43.8%" y1="100%" x2="100%" y2="0%"><stop offset="14.444444444444446%" stop-color="#0c110a" stop-opacity="1"></stop><stop offset="85.55555555555554%" stop-color="#25441c" stop-opacity="1"></stop></linearGradient></defs><defs><linearGradient id="grad2_0" x1="0%" y1="100%" x2="56.3%" y2="0%"><stop offset="14.444444444444446%" stop-color="#3f7d24" stop-opacity="1"></stop><stop offset="85.55555555555554%" stop-color="#3f7d24" stop-opacity="1"></stop></linearGradient></defs><defs><linearGradient id="grad2_1" x1="0%" y1="100%" x2="56.3%" y2="0%"><stop offset="14.444444444444446%" stop-color="#25441c" stop-opacity="1"></stop><stop offset="85.55555555555554%" stop-color="#3f7d24" stop-opacity="1"></stop></linearGradient></defs><defs><linearGradient id="grad2_2" x1="0%" y1="100%" x2="56.3%" y2="0%"><stop offset="14.444444444444446%" stop-color="#25441c" stop-opacity="1"></stop><stop offset="85.55555555555554%" stop-color="#0c110a" stop-opacity="1"></stop></linearGradient></defs><g transform="translate(960, 540)"><path d="M-486 0C-452.6 -36.5 -419.3 -73 -398.9 -106.9C-378.6 -140.8 -371.2 -172.1 -362 -209C-352.8 -245.9 -341.7 -288.3 -318.2 -318.2C-294.7 -348.1 -258.9 -365.4 -226 -391.4C-193.1 -417.5 -163 -452.2 -125.8 -469.4C-88.6 -486.7 -44.3 -486.3 0 -486L0 0Z" fill="#1a2a15"></path><path d="M-324 0C-301.8 -24.3 -279.5 -48.7 -266 -71.3C-252.4 -93.9 -247.5 -114.7 -241.3 -139.3C-235.2 -163.9 -227.8 -192.2 -212.1 -212.1C-196.5 -232.1 -172.6 -243.6 -150.7 -261C-128.7 -278.3 -108.7 -301.5 -83.9 -313C-59.1 -324.4 -29.5 -324.2 0 -324L0 0Z" fill="#316021"></path><path d="M-162 0C-150.9 -12.2 -139.8 -24.3 -133 -35.6C-126.2 -46.9 -123.7 -57.4 -120.7 -69.7C-117.6 -82 -113.9 -96.1 -106.1 -106.1C-98.2 -116 -86.3 -121.8 -75.3 -130.5C-64.4 -139.2 -54.3 -150.7 -41.9 -156.5C-29.5 -162.2 -14.8 -162.1 0 -162L0 0Z" fill="#3f7d24"></path></g><g transform="translate(0, 0)"><path d="M486 0C483.2 44.3 480.4 88.7 455.9 122.2C431.4 155.7 385.2 178.4 358.5 207C331.9 235.6 324.9 270.2 311.1 311.1C297.4 352 276.8 399.2 243 420.9C209.2 442.6 162 438.7 119.3 445.3C76.6 451.9 38.3 468.9 0 486L0 0Z" fill="#1a2a15"></path><path d="M324 0C322.1 29.6 320.3 59.1 303.9 81.4C287.6 103.8 256.8 118.9 239 138C221.3 157.1 216.6 180.2 207.4 207.4C198.2 234.7 184.6 266.1 162 280.6C139.4 295 108 292.5 79.5 296.9C51.1 301.3 25.5 312.6 0 324L0 0Z" fill="#316021"></path><path d="M162 0C161.1 14.8 160.1 29.6 152 40.7C143.8 51.9 128.4 59.5 119.5 69C110.6 78.5 108.3 90.1 103.7 103.7C99.1 117.3 92.3 133.1 81 140.3C69.7 147.5 54 146.2 39.8 148.4C25.5 150.6 12.8 156.3 0 162L0 0Z" fill="#3f7d24"></path></g></svg>