<svg id="visual" viewBox="0 0 960 540" width="960" height="540" xmlns="http://www.w3.org/2000/svg" xmlns:xlink="http://www.w3.org/1999/xlink" version="1.1"><path d="M0 44L20 46.7C40 49.3 80 54.7 120 55.7C160 56.7 200 53.3 240 49.8C280 46.3 320 42.7 360 41.7C400 40.7 440 42.3 480 41.3C520 40.3 560 36.7 600 36.7C640 36.7 680 40.3 720 45.8C760 51.3 800 58.7 840 58.7C880 58.7 920 51.3 940 47.7L960 44L960 0L940 0C920 0 880 0 840 0C800 0 760 0 720 0C680 0 640 0 600 0C560 0 520 0 480 0C440 0 400 0 360 0C320 0 280 0 240 0C200 0 160 0 120 0C80 0 40 0 20 0L0 0Z" fill="#3f7d24"></path><path d="M0 93L20 102.8C40 112.7 80 132.3 120 144C160 155.7 200 159.3 240 160.3C280 161.3 320 159.7 360 153.3C400 147 440 136 480 128.7C520 121.3 560 117.7 600 110.5C640 103.3 680 92.7 720 91C760 89.3 800 96.7 840 105.7C880 114.7 920 125.3 940 130.7L960 136L960 42L940 45.7C920 49.3 880 56.7 840 56.7C800 56.7 760 49.3 720 43.8C680 38.3 640 34.7 600 34.7C560 34.7 520 38.3 480 39.3C440 40.3 400 38.7 360 39.7C320 40.7 280 44.3 240 47.8C200 51.3 160 54.7 120 53.7C80 52.7 40 47.3 20 44.7L0 42Z" fill="#294d1e"></path><path d="M0 168L20 186C40 204 80 240 120 251.8C160 263.7 200 251.3 240 246C280 240.7 320 242.3 360 240.5C400 238.7 440 233.3 480 237C520 240.7 560 253.3 600 246.2C640 239 680 212 720 212C760 212 800 239 840 254.2C880 269.3 920 272.7 940 274.3L960 276L960 134L940 128.7C920 123.3 880 112.7 840 103.7C800 94.7 760 87.3 720 89C680 90.7 640 101.3 600 108.5C560 115.7 520 119.3 480 126.7C440 134 400 145 360 151.3C320 157.7 280 159.3 240 158.3C200 157.3 160 153.7 120 142C80 130.3 40 110.7 20 100.8L0 91Z" fill="#162213"></path><path d="M0 390L20 391.8C40 393.7 80 397.3 120 396.3C160 395.3 200 389.7 240 386.8C280 384 320 384 360 389.5C400 395 440 406 480 402.5C520 399 560 381 600 375.5C640 370 680 377 720 377.8C760 378.7 800 373.3 840 367.2C880 361 920 354 940 350.5L960 347L960 274L940 272.3C920 270.7 880 267.3 840 252.2C800 237 760 210 720 210C680 210 640 237 600 244.2C560 251.3 520 238.7 480 235C440 231.3 400 236.7 360 238.5C320 240.3 280 238.7 240 244C200 249.3 160 261.7 120 249.8C80 238 40 202 20 184L0 166Z" fill="#0c110a"></path><path d="M0 444L20 448.5C40 453 80 462 120 457.5C160 453 200 435 240 427.8C280 420.7 320 424.3 360 428.8C400 433.3 440 438.7 480 438.7C520 438.7 560 433.3 600 430.7C640 428 680 428 720 430.7C760 433.3 800 438.7 840 435.8C880 433 920 422 940 416.5L960 411L960 345L940 348.5C920 352 880 359 840 365.2C800 371.3 760 376.7 720 375.8C680 375 640 368 600 373.5C560 379 520 397 480 400.5C440 404 400 393 360 387.5C320 382 280 382 240 384.8C200 387.7 160 393.3 120 394.3C80 395.3 40 391.7 20 389.8L0 388Z" fill="#162213"></path><path d="M0 492L20 496.5C40 501 80 510 120 510C160 510 200 501 240 495.7C280 490.3 320 488.7 360 490.5C400 492.3 440 497.7 480 496.8C520 496 560 489 600 487.2C640 485.3 680 488.7 720 492.2C760 495.7 800 499.3 840 497.7C880 496 920 489 940 485.5L960 482L960 409L940 414.5C920 420 880 431 840 433.8C800 436.7 760 431.3 720 428.7C680 426 640 426 600 428.7C560 431.3 520 436.7 480 436.7C440 436.7 400 431.3 360 426.8C320 422.3 280 418.7 240 425.8C200 433 160 451 120 455.5C80 460 40 451 20 446.5L0 442Z" fill="#294d1e"></path><path d="M0 541L20 541C40 541 80 541 120 541C160 541 200 541 240 541C280 541 320 541 360 541C400 541 440 541 480 541C520 541 560 541 600 541C640 541 680 541 720 541C760 541 800 541 840 541C880 541 920 541 940 541L960 541L960 480L940 483.5C920 487 880 494 840 495.7C800 497.3 760 493.7 720 490.2C680 486.7 640 483.3 600 485.2C560 487 520 494 480 494.8C440 495.7 400 490.3 360 488.5C320 486.7 280 488.3 240 493.7C200 499 160 508 120 508C80 508 40 499 20 494.5L0 490Z" fill="#3f7d24"></path></svg>